<?xml version="1.0" encoding="utf-8"?>
<!-- Generator: Adobe Illustrator 28.0.0, SVG Export Plug-In . SVG Version: 6.00 Build 0)  -->
<svg version="1.1" id="Capa_1" xmlns="http://www.w3.org/2000/svg" xmlns:xlink="http://www.w3.org/1999/xlink" x="0px" y="0px"
	 viewBox="0 0 721.79 199.76" style="enable-background:new 0 0 721.79 199.76;" xml:space="preserve">
<style type="text/css">
	.st0{fill:#006BA6;}
	.st1{fill:#1F1F1F;}
</style>
<g id="Logo">
	<g>
		<path class="st0" d="M440.25,110.04c9.68,0,21.5,5.54,35.46,16.61c0.69,0,1.36,0,2.01,0c11.34,0,17.01,3.1,17.01,9.31
			c0,2.03-0.59,4.39-1.77,7.06c6.63,7.38,11.9,14.65,15.8,21.82c4.22,7.65,6.34,14.31,6.34,19.98c0,3.64-1.02,6.47-3.05,8.5
			c-2.03,2.03-4.87,3.05-8.5,3.05c-5.4,0-11.74-1.93-19.01-5.78c-6.79-3.58-13.77-8.5-20.94-14.76c-3.74,0.91-7.3,1.36-10.67,1.36
			c-11.71,0-17.57-3.56-17.57-10.67c0-2.19,0.51-4.76,1.52-7.7l9.47-0.72c-11.71-14.39-17.57-26.58-17.57-36.58
			c0-3.64,1-6.46,3.01-8.46C433.8,111.04,436.62,110.04,440.25,110.04z M434.32,123.44c0,9.36,5.64,20.78,16.93,34.26h0.24
			l-0.09,0.17c2.52,2.99,5.22,5.9,8.11,8.74c2.68-0.21,5.11-0.75,7.3-1.6c2.83-1.18,4.25-2.67,4.25-4.49c0-1.34-2.09-2.46-6.26-3.37
			c-6.15-1.34-10.06-2.38-11.71-3.13c-4.23-1.82-6.34-4.46-6.34-7.94c0-5.56,3.32-10.19,9.95-13.88c5.35-3.05,11.42-4.84,18.21-5.38
			c-11.9-9.2-21.96-13.8-30.18-13.8c-3.31,0-5.87,0.91-7.69,2.73S434.32,120.12,434.32,123.44z M453.17,165.8
			c-0.7-0.75-1.39-1.5-2.09-2.25C451.41,164.57,452.1,165.31,453.17,165.8z M468.33,174.54c13.05,10.8,24.12,16.21,33.21,16.21
			c3.32,0,5.88-0.91,7.7-2.73c1.82-1.82,2.73-4.39,2.73-7.7c0-4.97-1.85-10.86-5.54-17.65c-3.42-6.31-8.05-12.76-13.88-19.33
			l-14.2,0.48c0.37-1.34,0.56-2.43,0.56-3.29c0-1.55-0.75-2.57-2.25-3.05c-0.86-0.27-2.3-0.4-4.33-0.4c-1.98,0-3.96,0.24-5.94,0.72
			c-2.78,0.75-4.17,1.82-4.17,3.21c0.48,1.39,2.91,2.57,7.3,3.53c6.1,1.34,9.92,2.35,11.47,3.05c4.01,1.77,6.02,4.33,6.02,7.7
			c0,4.55-1.92,8.56-5.78,12.03C478.04,170.32,473.74,172.72,468.33,174.54z"/>
		<path class="st0" d="M500.75,176.55c-5.67,0-8.5-1.6-8.5-4.81c0-1.87,1.55-5.91,4.65-12.11c1.76-3.42,3.56-6.82,5.38-10.19h-5.05
			l4.89-9.71h5.05l3.05-6.18l17.16-6.5l-6.43,12.67h7.56l-4.89,9.71h-7.54c-5.35,10.7-8.02,16.18-8.02,16.45
			c0,0.21,0.03,0.35,0.08,0.4l0.96,0.24c0.91,0,3-0.4,6.26-1.2l-3.45,9.47C507.88,175.96,504.17,176.55,500.75,176.55z"/>
		<path class="st0" d="M555.06,152.96c-1.92-1.34-3.56-2-4.89-2c-2.62,0-5.38,1.84-8.26,5.54c-2.03,2.67-4.23,6.45-6.58,11.31
			c-1.39,2.94-2.75,5.91-4.09,8.91h-13.88l17.89-35.38h13l-1.2,2.41c3.32-2.09,6.55-3.13,9.71-3.13c2.73,0,5.35,0.78,7.86,2.33
			L555.06,152.96z"/>
		<path class="st0" d="M572.46,162.02c-0.27,0.7-0.4,1.34-0.4,1.93c0,2.41,1.68,3.61,5.05,3.61c2.89,0,5.72-1.6,8.5-4.81l12.92,1.84
			c-7.59,8.08-16.31,12.11-26.15,12.11c-4.01,0-7.27-0.61-9.79-1.84c-3.37-1.66-5.05-4.28-5.05-7.86c0-7.11,3.69-13.53,11.07-19.25
			c6.9-5.35,14.01-8.02,21.34-8.02c3.8,0,6.93,0.64,9.39,1.92c3.15,1.6,4.73,4.15,4.73,7.62c0,3.21-1.42,7.46-4.25,12.75H572.46z
			 M585.94,149.03c-4.01,0-7.14,1.68-9.39,5.05h13.48c0.21-0.7,0.32-1.31,0.32-1.85C590.36,150.1,588.88,149.03,585.94,149.03z"/>
		<path class="st0" d="M636.24,152.96c0.32-0.64,0.48-1.2,0.48-1.68l-0.24-0.72c-0.59-0.53-2.14-0.8-4.65-0.8
			c-1.93,0-3.53,0.35-4.81,1.04c-0.96,0.54-2.19,1.6-3.69,3.21l-11.87-1.84c3.74-4.33,7.54-7.37,11.39-9.11
			c3.85-1.74,8.66-2.61,14.44-2.61c9.68,0,14.52,2.01,14.52,6.02c0,2.51-0.94,5.46-2.81,8.83c-1.66,3-3.34,5.99-5.05,8.99
			c-1.82,3.64-2.73,7.06-2.73,10.27c0,0.75,0,1.47,0,2.17H627.1v-2.81c-4.78,2.35-9.41,3.53-13.87,3.53c-2.71,0-5.02-0.43-6.93-1.28
			c-2.6-1.18-3.91-2.97-3.91-5.38c0-1.28,0.4-2.73,1.2-4.33c2.51-4.92,7.33-8.32,14.44-10.19
			C624.13,155.18,630.2,154.08,636.24,152.96z M617.63,166.6c0,1.39,1.12,2.09,3.37,2.09c4.87,0,8.56-2.46,11.07-7.38
			c-2.83,0.48-5.64,0.94-8.42,1.36C619.64,163.58,617.63,164.89,617.63,166.6z"/>
		<path class="st0" d="M693.04,176.71c1.98-4.06,3.93-8.1,5.86-12.11c3.42-7.33,5.13-11.55,5.13-12.67c0-1.23-0.88-1.85-2.65-1.85
			c-4.12,0-7.67,3.24-10.67,9.71l-7.86,16.93h-12.6c1.93-3.9,3.82-7.81,5.7-11.71c3.53-7.54,5.29-11.98,5.29-13.32l-0.4-1.12
			c-0.64-0.32-1.37-0.48-2.17-0.48c-2.63,0-4.75,0.94-6.35,2.8c-1.02,1.07-2.33,3.26-3.94,6.57l-8.27,17.26h-13.28L664,141.25h12.44
			l-1.44,2.89c3.96-2.14,7.73-3.21,11.31-3.21c4.71,0,7.62,1.5,8.74,4.49c4.71-2.99,9.2-4.49,13.48-4.49c2.57,0,4.68,0.4,6.34,1.2
			c2.3,1.12,3.37,2.86,3.21,5.21c-0.27,3.42-4.41,13.21-12.44,29.36H693.04z"/>
	</g>
	<g>
		<path class="st1" d="M123.14,105.75l-14.4-62.7L91.8,96.45c-1.8,6.3-6.15,9.3-12.3,9.3h-7.95c-6.3,0-10.5-3-12.3-9.3L42.3,42
			l-14.4,63.75H1.95l19.8-86.4c1.65-8.1,6.15-11.1,12.75-11.1h10.95c6.15,0,10.5,3,12.45,9.45l17.7,58.35L93.15,17.7
			c1.95-6.45,6.15-9.45,12.3-9.45h10.95c6.6,0,11.1,3,12.9,11.1l19.95,86.4H123.14z"/>
		<path class="st1" d="M179.7,105.75c-15.75,0-23.55-9.15-23.55-22.05c0-13.2,7.8-22.2,23.55-22.2h27.9v14.55h-22.2
			c-3.75,0-5.55,1.8-5.55,5.25c0,3.3,1.8,5.25,5.25,5.25h29.85v-21.6c0-8.4-4.35-12.75-13.05-12.75h-41.7V30.9h42
			c24.75,0,37.35,12.9,37.35,35.7v39.15H179.7z"/>
		<path class="st1" d="M317.1,131.85V66.6c0-8.4-4.5-12.75-13.05-12.75h-12.6c-8.85,0-15.15,4.65-15.15,15.3
			c0,11.1,6.6,14.7,18,14.7c5.55,0,10.2-0.75,14.4-2.1v22.65c-4.95,1.35-11.1,2.1-17.1,2.1c-26.7,0-40.35-14.25-40.35-36.45
			c0-25.05,16.95-39.15,40.2-39.15h13.2c24.6,0,37.5,13.05,37.5,35.7v65.25H317.1z"/>
		<path class="st1" d="M392.25,105.75c-24.75,0-37.5-12.9-37.5-35.7V30.9h25.05v39.15c0,8.4,4.5,12.9,13.05,12.9h13.2
			c8.7,0,13.05-4.5,13.05-12.9V30.9h25.05v39.15c0,22.8-12.75,35.7-37.5,35.7H392.25z"/>
		<path class="st1" d="M469.04,23.55c-6.6,0-11.4-4.2-11.4-10.95c0-6.45,4.8-10.65,11.4-10.65h3.45c6.6,0,11.25,4.2,11.25,10.65
			c0,6.75-4.65,10.95-11.25,10.95H469.04z M458.1,105.75V30.9h25.05v74.85H458.1z"/>
		<path class="st1" d="M497.99,105.75V0.6h25.05v105.15H497.99z"/>
		<path class="st1" d="M559.64,105.75c-15.75,0-23.55-9.15-23.55-22.05c0-13.2,7.8-22.2,23.55-22.2h27.9v14.55h-22.2
			c-3.75,0-5.55,1.8-5.55,5.25c0,3.3,1.8,5.25,5.25,5.25h29.85v-21.6c0-8.4-4.35-12.75-13.05-12.75h-41.7V30.9h42
			c24.75,0,37.35,12.9,37.35,35.7v39.15H559.64z"/>
		<path class="st1" d="M634.19,105.75V0.6h25.05v105.15H634.19z M692.09,105.75L666.44,74.4c-1.5-2.1-2.4-3.9-2.4-6.15v-1.8
			c0-1.95,0.75-4.35,2.25-6.3l24.9-29.25h28.2l-30,36.3l31.5,38.55H692.09z"/>
	</g>
</g>
<g>
</g>
<g>
</g>
<g>
</g>
<g>
</g>
<g>
</g>
<g>
</g>
<g>
</g>
<g>
</g>
<g>
</g>
<g>
</g>
<g>
</g>
<g>
</g>
<g>
</g>
<g>
</g>
<g>
</g>
</svg>
