<?xml version="1.0" encoding="utf-8"?>
<!-- Generator: Adobe Illustrator 28.0.0, SVG Export Plug-In . SVG Version: 6.00 Build 0)  -->
<svg version="1.1" id="Capa_1" xmlns="http://www.w3.org/2000/svg" xmlns:xlink="http://www.w3.org/1999/xlink" x="0px" y="0px"
	 viewBox="0 0 1000 1000" style="enable-background:new 0 0 1000 1000;" xml:space="preserve">
<style type="text/css">
	.st0{fill:#FFFFFF;}
</style>
<g id="Isotipo">
	<g id="Parte_Exterior">
		<path class="st0" d="M974.34,476.06c-0.32-14.43-2.01-28.72-3.99-42.99c-2.99-21.54-7.55-42.75-13.54-63.64
			c-16.9-58.92-44.09-112.65-81.73-161c-41.46-53.26-92.01-95.82-151.58-127.61c-41.68-22.24-85.72-37.88-132.09-46.93
			c-15.69-3.06-31.48-5.27-47.38-6.8c-20.88-2.02-41.8-2.55-62.73-1.69c-41.44,1.7-82.03,8.65-121.65,20.98
			c-55.06,17.14-105.41,43.35-150.89,78.8c-50.56,39.4-91.52,87.12-122.86,143.06c-21.76,38.83-37.64,79.97-47.85,123.28
			c-4.05,17.2-7.15,34.58-9.15,52.16c-1.21,10.63-2.21,21.26-2.74,31.94c-0.16,3.09-0.05,6.28-1.16,9.28c0,10.37,0,20.73,0,31.1
			c1.2,2.63,1.01,5.5,1.14,8.24c0.77,15.98,2.47,31.86,4.85,47.68c3.76,24.97,9.54,49.48,17.28,73.52
			c17.15,53.26,42.91,102,77.17,146.23c2.52,3.26,5.13,6.45,7.77,9.76c3.3-3.63,6.48-6.97,9.48-10.45
			c10.24-11.92,18.69-25.09,26.67-38.58c13.26-22.4,24.97-45.63,36.64-68.88c21.38-42.57,43.34-84.81,67.39-125.97
			c28.46-48.7,56.47-97.68,84.67-146.54c17.45-30.23,34.88-60.48,52.29-90.73c0.58-1.01,1.47-1.95,1.48-3.36
			c-0.61-0.05-1.04-0.14-1.48-0.14c-43.58-0.01-87.16,0.01-130.74-0.05c-2.03,0-2.99,0.8-3.92,2.43
			c-19.16,33.27-38.37,66.52-57.57,99.77c-22.23,38.52-44.46,77.05-66.71,115.56c-0.53,0.92-0.8,2.09-1.99,2.67
			c-0.11-0.53-0.21-0.96-0.26-1.4c-1.06-8.04-1.45-16.15-1.69-24.25c-0.41-13.63-0.1-27.24,1.06-40.85
			c0.96-11.34,2.35-22.61,4.4-33.8c6.9-37.74,19.51-73.46,38.05-107.05c23.62-42.79,54.83-79.11,93.36-109.11
			c28.83-22.43,60.46-39.88,94.76-52.45c35.15-12.88,71.47-19.83,108.84-21.21c10.23-0.38,20.48-0.25,30.73,0.34
			c12.93,0.75,25.78,2.07,38.57,4.11c32.88,5.23,64.39,14.95,94.48,29.15c45.87,21.66,85.37,51.72,118.19,90.45
			c36.17,42.7,60.58,91.35,73.47,145.8c0.42,1.76,1.1,3.4,2.01,4.98c15.68,27.1,31.31,54.21,46.95,81.33
			c21.84,37.84,43.68,75.68,65.53,113.51c0.41,0.72,0.59,1.7,1.59,1.87c0.69-0.36,0.62-0.98,0.76-1.5
			c3.68-14.17,6.65-28.48,8.93-42.94c2.7-17.13,4.81-34.32,5.27-51.68c0.02-0.82-0.4-1.84,0.63-2.43c0-13.98,0-27.94,0-41.92
			C974.01,477.68,974.36,476.78,974.34,476.06z"/>
		<path class="st0" d="M899.2,624.31c-8.84-15.32-17.53-30.71-26.55-45.92c-8.98-15.18-16.89-31-27.03-45.48
			c-31.34-54.32-62.69-108.65-94.04-162.97c-0.71-1.24-1.2-2.65-2.52-3.53c-1.35,1.38-2.07,3.06-2.97,4.6
			c-7.27,12.57-14.51,25.16-21.78,37.75c-13.73,23.79-27.44,47.61-41.25,71.36c-1.2,2.08-1.36,3.64-0.08,5.81
			c6.13,10.37,12.09,20.85,18.1,31.29c31.99,55.51,63.98,111.02,96.05,166.49c1.3,2.24,1.37,3.79-0.02,6.04
			c-20.2,32.54-45,61.03-74.63,85.3c-26.23,21.49-55.05,38.65-86.36,51.62c-35.33,14.63-72.15,23.04-110.24,25.79
			c-14.48,1.04-29.01,1.2-43.53,0.39c-14.51-0.8-28.91-2.35-43.23-4.85c-31.9-5.55-62.44-15.36-91.6-29.41
			c-38.96-18.77-73.31-43.9-103.14-75.22c-0.83-0.88-1.48-2.01-2.78-2.35c-0.93,0.65-1.03,1.72-1.38,2.64
			c-3.33,8.61-6.76,17.18-10.55,25.6c-12.88,28.63-27.02,56.5-48.6,79.84c-1.02,1.11-0.92,1.86,0.15,2.78
			c1.79,1.54,3.54,3.15,5.3,4.71c28.83,25.48,60.31,47.12,94.45,64.83C342.08,953.1,407,970.94,475.8,974.45
			c0.88,0.04,1.83-0.15,2.57,0.55c14.64,0,29.28,0,43.92,0c0.74-0.71,1.7-0.51,2.57-0.54c12.04-0.35,24.04-1.53,35.98-3
			c21.23-2.61,42.2-6.59,62.91-11.98c46.97-12.22,91.08-31.1,132.12-57.01c47.35-29.89,87.9-67.22,121.54-112.03
			c23.31-31.04,42.34-64.53,57.31-100.35c0.71-1.69,0.79-2.99-0.19-4.67C922.7,665.09,910.96,644.69,899.2,624.31z"/>
	</g>
	<path id="Parte_Central" class="st0" d="M717.07,316.69c-48.2,0-96.38,0.03-144.58-0.07c-2.78-0.01-4.14,0.97-5.46,3.26
		c-24.73,42.99-49.54,85.94-74.33,128.9c-0.59,1.02-1.21,2.03-2.05,3.4c-8.62-14.94-17.04-29.55-25.48-44.12
		c-8.4-14.52-16.7-29.11-25.34-43.81c-0.57,0.83-0.86,1.19-1.08,1.58c-21.81,37.8-43.59,75.61-65.49,113.37
		c-1.21,2.1-0.62,3.45,0.37,5.16c41.18,71.29,82.33,142.61,123.49,213.91c0.56,0.97,0.98,2.03,1.84,2.82
		c2.78-3.54,220.85-381.92,221.49-384.39C719.3,316.69,718.18,316.69,717.07,316.69z"/>
</g>
</svg>
